<svg xmlns="http://www.w3.org/2000/svg" xml:space="preserve" width="2048" height="2048" style="shape-rendering:geometricPrecision;text-rendering:geometricPrecision;image-rendering:optimizeQuality;fill-rule:evenodd;clip-rule:evenodd"><defs><style>.fil1{fill:none}.fil3{fill:#5d4037}</style></defs><g id="Layer_x0020_1"><path d="M1024 255.999c424.155 0 768.001 343.845 768.001 768.001 0 424.155-343.845 768.001-768.001 768.001-424.155 0-768.001-343.845-768.001-768.001 0-424.155 343.845-768.001 768.001-768.001z" style="fill:#ffd54f"/><path class="fil1" d="M0 0h2048v2048H0z"/><path class="fil1" d="M255.999 255.999h1536v1536h-1536z"/><path d="M1027.32 976.996c39.762 0 75.763 16.12 101.822 42.178 26.06 26.061 42.178 62.062 42.178 101.822 0 39.762-16.12 75.763-42.178 101.822-26.059 26.06-62.06 42.179-101.822 42.179s-75.763-16.12-101.822-42.179c-26.059-26.058-42.178-62.06-42.178-101.822 0-39.76 16.118-75.76 42.178-101.822 26.059-26.058 62.06-42.178 101.822-42.178z" style="fill:#e53935"/><path class="fil3" d="M732.909 656.995c35.347 0 64 28.654 64 64 0 35.347-28.653 64-64 64s-64-28.653-64-64c0-35.346 28.653-64 64-64zM1299.3 656.995c35.347 0 64 28.654 64 64 0 35.347-28.653 64-64 64s-64-28.653-64-64c0-35.346 28.653-64 64-64zM675.09 1323.17c54.404 312.78 657.185 300.019 704.001 0-114.196 155.313-489.486 229.459-704.001 0z"/></g></svg>